<svg xmlns="http://www.w3.org/2000/svg" xmlns:xlink="http://www.w3.org/1999/xlink" id="Capa_1" x="0" y="0" version="1.1" viewBox="0 0 1167.9 2400.9" xml:space="preserve" style="enable-background:new 0 0 1167.9 2400.9"><style type="text/css">.st0{fill:#171616;stroke:#070308;stroke-miterlimit:10}.st1{fill:#fff}.st2{font-family:&apos;TimesNewRomanPSMT&apos;}.st3{font-size:71.8569px}.st4{font-size:37.5502px}.st5{font-size:37.5501px}.st6{font-size:46.3856px}.st7{font-size:37.5503px}.st8{font-size:101.9103px}.st9{font-size:64.0562px}.st10{font-size:77.3093px}</style><rect width="1167.9" height="2437.6" x="0" y="1.4" class="st0"/><text class="st1 st2 st3" transform="matrix(1.0388 -2.385625e-02 2.295992e-02 0.9997 319.7975 1198.0713)">activo</text><text class="st1 st2 st4" transform="matrix(1 0 0 1 555.0171 956.6953)">poco expresivo de palabra</text><text class="st1 st2 st4" transform="matrix(1 0 0 1 519.8384 550.1426)">mas de gestos y miradas</text><text class="st1 st2 st4" transform="matrix(1 0 0 1 619.7645 1444.8252)">perseverante y creativo</text><text class="st1 st2 st4" transform="matrix(1 0 0 1 761.9719 1220.241)">contrario a la vagancia</text><text class="st1 st2 st4" transform="matrix(1 0 0 1 594.775 1666.8818)">amor por la naturaleza</text><text class="st1 st2 st4" transform="matrix(1 0 0 1 619.7641 897.3322)">amistades de proyectos</text><text class="st1 st2 st4" transform="matrix(1 0 0 1 170.5307 969.9263)">buscaba las soluciones</text><text class="st1 st2 st4" transform="matrix(1 0 0 1 619.7646 666.4702)">cabeza en su proyecto</text><text class="st1 st2 st4" transform="matrix(1 0 0 1 680.2612 1522.1348)">seguridad en el mismo</text><text class="st1 st2 st4" transform="matrix(1 0 0 1 314.2542 611.3711)">deportista incansable</text><text class="st1 st2 st4" transform="matrix(1 0 0 1 406.7914 1861.332)">generaba actividades</text><text class="st1 st2 st4" transform="matrix(1 0 0 1 364.7912 1595.0273)">abierto en lo social</text><text class="st1 st2 st4" transform="matrix(1 0 0 1 730.6194 1595.0273)">recto blanco o negro</text><text class="st1 st2 st4" transform="matrix(1 0 0 1 184.2637 1666.8818)">medicina homeopatía</text><text class="st1 st2 st4" transform="matrix(1 0 0 1 702.6191 1069.3711)">apreciado y querido</text><text class="st1 st2 st4" transform="matrix(1 0 0 1 643.9351 775.3711)">cariñoso sin abrazo</text><text class="st1 st2 st5" transform="matrix(1 -3.400014e-03 3.400014e-03 1 272.5302 1741.8035)">antidiscriminacion</text><text class="st1 st2 st6" transform="matrix(1 0 0 1 660.2964 1296.2949)">lleno de proyectos</text><text class="st1 st2 st4" transform="matrix(1 0 0 1 226.7744 759.3711)">espíritu practico</text><text class="st1 st2 st4" transform="matrix(1 0 0 1 619.7642 1718.5918)">de pocas palabras</text><text class="st1 st2 st4" transform="matrix(1 0 0 1 730.6189 1005.9258)">no malas palabras</text><text class="st1 st2 st4" transform="matrix(1 0 0 1 770.5698 1147.6494)">hacer acompañado</text><text class="st1 st2 st4" transform="matrix(1 0 0 1 472.9607 723.5811)">super generoso</text><text class="st1 st2 st4" transform="matrix(1 0 0 1 170.5295 1444.8252)">super sociable</text><text class="st1 st2 st4" transform="matrix(1 0 0 1 81.0103 1371.9336)">pocas palabras</text><text class="st1 st2 st4" transform="matrix(1 0 0 1 519.8386 1912.2471)">mal conductor</text><text class="st1 st2 st4" transform="matrix(1 0 0 1 379.3 1274.8652)">poco sociable</text><text class="st1 st2 st4" transform="matrix(1 0 0 1 573.9352 1773.8047)">casa abierta</text><text class="st1 st2 st4" transform="matrix(1 0 0 1 594.7749 1818.2471)">bondad total</text><text class="st1 st2 st4" transform="matrix(1 0 0 1 314.2541 1802.2471)">no careteaba</text><text class="st1 st2 st5" transform="matrix(1 3.420014e-03 -3.420014e-03 1 104.2628 1195.6494)">emprendedor</text><text class="st1 st2 st4" transform="matrix(1 0 0 1 594.7747 1394.0225)">conversador</text><text class="st1 st2 st4" transform="matrix(1 0 0 1 152.5679 1508.8818)">facilitador</text><text class="st1 st2 st4" transform="matrix(1 0 0 1 424.9351 803.3711)">responsable</text><text class="st1 st2 st4" transform="matrix(1 0 0 1 152.5679 1274.8652)">transgresor</text><text class="st1 st2 st4" transform="matrix(1 0 0 1 226.7744 1111.3711)">nos ayudaba</text><text class="st1 st2 st4" transform="matrix(1 0 0 1 444.9353 1488.8818)">con rutinas</text><text class="st1 st2 st4" transform="matrix(1 0 0 1 194.9196 703.5811)">deportista</text><text class="st1 st2 st4" transform="matrix(1 0 0 1 680.2616 611.3712)">aventurero</text><text class="st1 st2 st4" transform="matrix(1 0 0 1 496.9602 1349.8457)">despistado</text><text class="st1 st2 st4" transform="matrix(1 0 0 1 825.2107 1394.0225)">adelantado</text><text class="st1 st2 st4" transform="matrix(1 0 0 1 730.6191 723.5811)">visionario</text><text class="st1 st2 st4" transform="matrix(1 0 0 1 702.6189 836.7676)">distraido</text><text class="st1 st2 st4" transform="matrix(1 0 0 1 352.3419 526.1426)">compartia</text><text class="st1 st2 st4" transform="matrix(1 0 0 1 472.9607 872.6953)">solidario</text><text class="st1 st2 st4" transform="matrix(1 0 0 1 496.9603 465)">ejecutivo</text><text class="st1 st2 st7" transform="matrix(0.9996 2.869995e-02 -2.869995e-02 0.9996 170.53 1040.0751)">vida sana</text><text class="st1 st2 st4" transform="matrix(1 0 0 1 194.9194 856.7676)">ingenioso</text><text class="st1 st2 st4" transform="matrix(1 0 0 1 364.7915 682.4702)">apoyador</text><text class="st1 st2 st4" transform="matrix(1 0 0 1 336.3416 1542.1348)">valorado</text><text class="st1 st2 st4" transform="matrix(1 0 0 1 472.9604 1973.332)">honesto</text><text class="st1 st2 st4" transform="matrix(1 0 0 1 314.2543 897.3322)">exitoso</text><text class="st1 st2 st4" transform="matrix(1 0 0 1 472.9604 1428.8252)">lider</text><text class="st1 st2 st4" transform="matrix(1 0 0 1 352.342 1371.9336)">recto</text><text class="st1 st2 st4" transform="matrix(1 0 0 1 226.7746 1565.1475)">ágil</text><text class="st1 st2 st8" transform="matrix(0.8363 0 0 1 364.7915 1051.6533)">generoso</text><text class="st1 st2 st9" transform="matrix(0.9999 -1.606001e-02 1.606001e-02 0.9999 519.8384 1220.241)">creativo</text><text class="st1 st2 st10" transform="matrix(1 0 0 1 464.5703 1131.6494)">divertido</text></svg>