<svg xmlns="http://www.w3.org/2000/svg" xmlns:xlink="http://www.w3.org/1999/xlink" x="0" y="0" version="1.1" viewBox="0 0 1366 768" xml:space="preserve" style="enable-background:new 0 0 1366 768"><style type="text/css">.st0,.st1{fill:none;stroke:#000;stroke-miterlimit:10}.st1{fill:#171717}.st2{fill:none}.st3{fill:#fff}.st4{font-family:&apos;TimesNewRomanPSMT&apos;}.st5{font-size:30px}.st6{font-size:17px}.st7{font-size:21px}.st8{font-size:35px}.st9{font-size:29px}</style><g id="Capa_1"><g><g><path d="M371.1,373.6" class="st0"/></g></g><g><g><path d="M959.1,418.6" class="st0"/></g></g><rect width="1366" height="768" x="-.5" y="-.5" class="st1"/><rect width="113" height="36" x="330" y="87" class="st2"/><text class="st3 st4 st5" transform="matrix(0.9997 -2.296002e-02 2.296002e-02 0.9997 533.7582 398.7016)">activo</text><text class="st3 st4 st6" transform="matrix(1 0 0 1 647 199)">poco expresivo de palabra</text><text class="st3 st4 st6" transform="matrix(1 0 0 1 821 340)">mas de gestos y miradas</text><text class="st3 st4 st6" transform="matrix(1 0 0 1 631 504)">perseverante y creativo</text><text class="st3 st4 st6" transform="matrix(1 0 0 1 781.9321 397.1963)">contrario a la vagancia</text><text class="st3 st4 st6" transform="matrix(1 0 0 1 284.9321 366.1963)">amor por la naturaleza</text><text class="st3 st4 st6" transform="matrix(1 0 0 1 732 226)">amistades de proyectos</text><text class="st3 st4 st6" transform="matrix(1 0 0 1 442.9321 289.1963)">buscaba las soluciones</text><text class="st3 st4 st6" transform="matrix(1 0 0 1 753.9321 373.1963)">cabeza en su proyecto</text><text class="st3 st4 st6" transform="matrix(1 0 0 1 731.9321 533.1963)">seguridad en el mismo</text><text class="st3 st4 st6" transform="matrix(1 0 0 1 401.9321 333.1963)">deportista incansable</text><text class="st3 st4 st6" transform="matrix(1 0 0 1 753.9321 267.1963)">generaba actividades</text><text class="st3 st4 st6" transform="matrix(1 0 0 1 499.9321 572.1963)">abierto en lo social</text><text class="st3 st4 st6" transform="matrix(1 0 0 1 672.9321 563.1963)">recto blanco o negro</text><text class="st3 st4 st6" transform="matrix(1 0 0 1 386.9321 533.1963)">medicina homeopatía</text><text class="st3 st4 st6" transform="matrix(1 0 0 1 393.9321 256.1963)">apreciado y querido</text><text class="st3 st4 st6" transform="matrix(1 0 0 1 436.9321 181.1963)">cariñoso sin abrazo</text><text class="st3 st4 st6" transform="matrix(1 -3.400739e-03 3.400739e-03 1 370.9477 431.4114)">antidiscriminacion</text><text class="st3 st4 st7" transform="matrix(1 0 0 1 672.9321 438.1963)">lleno de proyectos</text><text class="st3 st4 st6" transform="matrix(1 0 0 1 307.9321 289.1963)">espíritu practico</text><text class="st3 st4 st6" transform="matrix(1 0 0 1 329.9321 455.1963)">de pocas palabras</text><text class="st3 st4 st6" transform="matrix(1 0 0 1 731.9321 289.1963)">no malas palabras</text><text class="st3 st4 st6" transform="matrix(1 0 0 1 884.9321 461.1963)">hacer acompañado</text><text class="st3 st4 st6" transform="matrix(1 0 0 1 351.9321 397.1963)">super generoso</text><text class="st3 st4 st6" transform="matrix(1 0 0 1 472.9321 504.1963)">super sociable</text><text class="st3 st4 st6" transform="matrix(1 0 0 1 436.9321 480.1963)">pocas palabras</text><text class="st3 st4 st6" transform="matrix(1 0 0 1 820.9321 498.1963)">mal conductor</text><text class="st3 st4 st6" transform="matrix(1 0 0 1 514.9321 444.1963)">poco sociable</text><text class="st3 st4 st6" transform="matrix(1 0 0 1 846.9492 431.1963)">casa abierta</text><text class="st3 st4 st6" transform="matrix(1 0 0 1 547.9492 153.1963)">bondad total</text><text class="st3 st4 st6" transform="matrix(1 0 0 1 647 597.1963)">no careteaba</text><text class="st3 st4 st6" transform="matrix(1 3.416974e-03 -3.416974e-03 1 454.985 366.0428)">emprendedor</text><text class="st3 st4 st6" transform="matrix(1 0 0 1 665 481.1963)">conversador</text><text class="st3 st4 st6" transform="matrix(1 0 0 1 363 511.1963)">facilitador</text><text class="st3 st4 st6" transform="matrix(1 0 0 1 570 226.1963)">responsable</text><text class="st3 st4 st6" transform="matrix(1 0 0 1 500 418.1963)">transgresor</text><text class="st3 st4 st6" transform="matrix(1 0 0 1 775 181.1963)">nos ayudaba</text><text class="st3 st4 st6" transform="matrix(1 0 0 1 631 533.1963)">con rutinas</text><text class="st3 st4 st6" transform="matrix(1 0 0 1 811 319.1963)">deportista</text><text class="st3 st4 st6" transform="matrix(1 0 0 1 315 326.1963)">aventurero</text><text class="st3 st4 st6" transform="matrix(1 0 0 1 618 461.1963)">despistado</text><text class="st3 st4 st6" transform="matrix(1 0 0 1 782 471.1963)">adelantado</text><text class="st3 st4 st6" transform="matrix(1 0 0 1 673 171.1963)">visionario</text><text class="st3 st4 st6" transform="matrix(1 0 0 1 561 267.1963)">distraido</text><text class="st3 st4 st6" transform="matrix(1 0 0 1 720 326.1963)">compartia</text><text class="st3 st4 st6" transform="matrix(1 0 0 1 665 267.1963)">solidario</text><text class="st3 st4 st6" transform="matrix(1 0 0 1 500 206.1963)">ejecutivo</text><text class="st3 st4 st6" transform="matrix(0.9996 2.869745e-02 -2.869745e-02 0.9996 560.8851 480.28)">vida sana</text><text class="st3 st4 st6" transform="matrix(1 0 0 1 455 226.1963)">ingenioso</text><text class="st3 st4 st6" transform="matrix(1 0 0 1 641 289.1963)">apoyador</text><text class="st3 st4 st6" transform="matrix(1 0 0 1 665 226.1963)">sensible</text><text class="st3 st4 st6" transform="matrix(1 0 0 1 548 539.1963)">valorado</text><text class="st3 st4 st6" transform="matrix(1 0 0 1 581 181.1963)">honesto</text><text class="st3 st4 st6" transform="matrix(1 0 0 1 762 349.1963)">exitoso</text><text class="st3 st4 st6" transform="matrix(1 0 0 1 596 511.1963)">lider</text><text class="st3 st4 st6" transform="matrix(1 0 0 1 538 244.1963)">recto</text><text class="st3 st4 st6" transform="matrix(1 0 0 1 891 298.1963)">ágil</text><text class="st3 st4 st8" transform="matrix(1 0 0 1 561 325.793)">generoso</text><text class="st3 st4 st9" transform="matrix(0.9999 -1.606485e-02 1.606485e-02 0.9999 631.1192 402.4899)">creativo</text><text class="st3 st4 st8" transform="matrix(1 0 0 1 596.0791 366.0938)">divertido</text></g></svg>