<?xml version="1.0" encoding="utf-8"?>
<!-- Generator: Adobe Illustrator 21.1.0, SVG Export Plug-In . SVG Version: 6.00 Build 0)  -->
<svg version="1.1" xmlns="http://www.w3.org/2000/svg" xmlns:xlink="http://www.w3.org/1999/xlink" x="0px" y="0px"
	 viewBox="0 0 1366 768" style="enable-background:new 0 0 1366 768;" xml:space="preserve">
<style type="text/css">
	.st0{fill:none;stroke:#000000;stroke-miterlimit:10;}
	.st1{fill:#171717;stroke:#000000;stroke-miterlimit:10;}
	.st2{fill:none;}
	.st3{fill:#FFFFFF;}
	.st4{font-family:'TimesNewRomanPSMT';}
	.st5{font-size:30px;}
	.st6{font-size:17px;}
	.st7{font-size:21px;}
	.st8{font-size:35px;}
	.st9{font-size:29px;}
</style>
<g id="Capa_1">
	<g>
		<g>
			<path class="st0" d="M371.1,373.6"/>
		</g>
	</g>
	<g>
		<g>
			<path class="st0" d="M959.1,418.6"/>
		</g>
	</g>
	<rect x="-0.5" y="-0.5" class="st1" width="1366" height="768"/>
	<rect x="330" y="87" class="st2" width="113" height="36"/>
	<text transform="matrix(0.9997 -2.296002e-02 2.296002e-02 0.9997 533.7582 398.7016)" class="st3 st4 st5">activo</text>
	<text transform="matrix(1 0 0 1 647 199)" class="st3 st4 st6">poco expresivo de palabra</text>
	<text transform="matrix(1 0 0 1 821 340)" class="st3 st4 st6">mas de gestos y miradas</text>
	<text transform="matrix(1 0 0 1 631 504)" class="st3 st4 st6">perseverante y creativo</text>
	<text transform="matrix(1 0 0 1 781.9321 397.1963)" class="st3 st4 st6">contrario a la vagancia</text>
	<text transform="matrix(1 0 0 1 284.9321 366.1963)" class="st3 st4 st6">amor por la naturaleza</text>
	<text transform="matrix(1 0 0 1 732 226)" class="st3 st4 st6">amistades de proyectos</text>
	<text transform="matrix(1 0 0 1 442.9321 289.1963)" class="st3 st4 st6">buscaba las soluciones</text>
	<text transform="matrix(1 0 0 1 753.9321 373.1963)" class="st3 st4 st6">cabeza en su proyecto</text>
	<text transform="matrix(1 0 0 1 731.9321 533.1963)" class="st3 st4 st6">seguridad en el mismo</text>
	<text transform="matrix(1 0 0 1 401.9321 333.1963)" class="st3 st4 st6">deportista incansable</text>
	<text transform="matrix(1 0 0 1 753.9321 267.1963)" class="st3 st4 st6">generaba actividades</text>
	<text transform="matrix(1 0 0 1 499.9321 572.1963)" class="st3 st4 st6">abierto en lo social</text>
	<text transform="matrix(1 0 0 1 672.9321 563.1963)" class="st3 st4 st6">recto blanco o negro</text>
	<text transform="matrix(1 0 0 1 386.9321 533.1963)" class="st3 st4 st6">medicina homeopatía</text>
	<text transform="matrix(1 0 0 1 393.9321 256.1963)" class="st3 st4 st6">apreciado y querido</text>
	<text transform="matrix(1 0 0 1 436.9321 181.1963)" class="st3 st4 st6">cariñoso sin abrazo</text>
	<text transform="matrix(1 -3.400739e-03 3.400739e-03 1 370.9477 431.4114)" class="st3 st4 st6">antidiscriminacion</text>
	<text transform="matrix(1 0 0 1 672.9321 438.1963)" class="st3 st4 st7">lleno de proyectos</text>
	<text transform="matrix(1 0 0 1 307.9321 289.1963)" class="st3 st4 st6">espíritu practico</text>
	<text transform="matrix(1 0 0 1 329.9321 455.1963)" class="st3 st4 st6">de pocas palabras</text>
	<text transform="matrix(1 0 0 1 731.9321 289.1963)" class="st3 st4 st6">no malas palabras</text>
	<text transform="matrix(1 0 0 1 884.9321 461.1963)" class="st3 st4 st6">hacer acompañado</text>
	<text transform="matrix(1 0 0 1 351.9321 397.1963)" class="st3 st4 st6">super generoso</text>
	<text transform="matrix(1 0 0 1 472.9321 504.1963)" class="st3 st4 st6">super sociable</text>
	<text transform="matrix(1 0 0 1 436.9321 480.1963)" class="st3 st4 st6">pocas palabras</text>
	<text transform="matrix(1 0 0 1 820.9321 498.1963)" class="st3 st4 st6">mal conductor</text>
	<text transform="matrix(1 0 0 1 514.9321 444.1963)" class="st3 st4 st6">poco sociable</text>
	<text transform="matrix(1 0 0 1 846.9492 431.1963)" class="st3 st4 st6">casa abierta</text>
	<text transform="matrix(1 0 0 1 547.9492 153.1963)" class="st3 st4 st6">bondad total</text>
	<text transform="matrix(1 0 0 1 647 597.1963)" class="st3 st4 st6">no careteaba</text>
	<text transform="matrix(1 3.416974e-03 -3.416974e-03 1 454.985 366.0428)" class="st3 st4 st6">emprendedor</text>
	<text transform="matrix(1 0 0 1 665 481.1963)" class="st3 st4 st6">conversador</text>
	<text transform="matrix(1 0 0 1 363 511.1963)" class="st3 st4 st6">facilitador</text>
	<text transform="matrix(1 0 0 1 570 226.1963)" class="st3 st4 st6">responsable</text>
	<text transform="matrix(1 0 0 1 500 418.1963)" class="st3 st4 st6">transgresor</text>
	<text transform="matrix(1 0 0 1 775 181.1963)" class="st3 st4 st6">nos ayudaba</text>
	<text transform="matrix(1 0 0 1 631 533.1963)" class="st3 st4 st6">con rutinas</text>
	<text transform="matrix(1 0 0 1 811 319.1963)" class="st3 st4 st6">deportista</text>
	<text transform="matrix(1 0 0 1 315 326.1963)" class="st3 st4 st6">aventurero</text>
	<text transform="matrix(1 0 0 1 618 461.1963)" class="st3 st4 st6">despistado</text>
	<text transform="matrix(1 0 0 1 782 471.1963)" class="st3 st4 st6">adelantado</text>
	<text transform="matrix(1 0 0 1 673 171.1963)" class="st3 st4 st6">visionario</text>
	<text transform="matrix(1 0 0 1 561 267.1963)" class="st3 st4 st6">distraido</text>
	<text transform="matrix(1 0 0 1 720 326.1963)" class="st3 st4 st6">compartia</text>
	<text transform="matrix(1 0 0 1 665 267.1963)" class="st3 st4 st6">solidario</text>
	<text transform="matrix(1 0 0 1 500 206.1963)" class="st3 st4 st6">ejecutivo</text>
	<text transform="matrix(0.9996 2.869745e-02 -2.869745e-02 0.9996 560.8851 480.28)" class="st3 st4 st6">vida sana</text>
	<text transform="matrix(1 0 0 1 455 226.1963)" class="st3 st4 st6">ingenioso</text>
	<text transform="matrix(1 0 0 1 641 289.1963)" class="st3 st4 st6">apoyador</text>
	<text transform="matrix(1 0 0 1 665 226.1963)" class="st3 st4 st6">sensible</text>
	<text transform="matrix(1 0 0 1 548 539.1963)" class="st3 st4 st6">valorado</text>
	<text transform="matrix(1 0 0 1 581 181.1963)" class="st3 st4 st6">honesto</text>
	<text transform="matrix(1 0 0 1 762 349.1963)" class="st3 st4 st6">exitoso</text>
	<text transform="matrix(1 0 0 1 596 511.1963)" class="st3 st4 st6">lider</text>
	<text transform="matrix(1 0 0 1 538 244.1963)" class="st3 st4 st6">recto</text>
	<text transform="matrix(1 0 0 1 891 298.1963)" class="st3 st4 st6">ágil</text>
	<text transform="matrix(1 0 0 1 561 325.793)" class="st3 st4 st8">generoso</text>
	<text transform="matrix(0.9999 -1.606485e-02 1.606485e-02 0.9999 631.1192 402.4899)" class="st3 st4 st9">creativo</text>
	<text transform="matrix(1 0 0 1 596.0791 366.0938)" class="st3 st4 st8">divertido</text>
</g>
<g id="Capa_2">
</g>
</svg>
